<svg width="256" height="55" viewBox="0 0 256 55" fill="none" xmlns="http://www.w3.org/2000/svg">
<g clip-path="url(#clip0_12626_672)">
<path d="M149.435 31.731H140.997V35.6348H149.435V31.731Z" fill="#50B848"/>
<path d="M110.876 25.3277H115.401V41.8697H119.869V25.3277H124.407V21.452H110.876V25.3277ZM104.659 29.077H96.6767V21.452H92.2091V41.8697H96.6767V33.0229H104.659V41.8697H109.126V21.452H104.659V29.077ZM73.2856 21.452H68.8037V38.008H61.3766V21.452H56.909V41.8697H71.5355V46.3492H75.7044V38.008H73.2856V21.452ZM210.573 41.8697H222.297V38.008H215.041V33.1212H221.998V29.2315H215.041V25.3277H222.297V21.452H210.573V41.8697ZM204.455 30.8745C205.051 30.44 205.53 29.8691 205.852 29.2111C206.175 28.553 206.33 27.8275 206.305 27.0971C206.327 26.2756 206.161 25.4599 205.818 24.7109C205.476 23.9619 204.966 23.2991 204.327 22.772C202.819 21.7987 201.03 21.34 199.233 21.4661H193.969V41.8697H201.012C202.926 41.9881 204.816 41.3916 206.305 40.1986C206.889 39.6608 207.351 39.0078 207.662 38.282C207.974 37.5562 208.127 36.7739 208.112 35.9859C208.138 35.2641 208.016 34.5446 207.752 33.871C207.488 33.1975 207.087 32.584 206.575 32.0681C205.98 31.505 205.251 31.0993 204.455 30.8885V30.8745ZM198.437 25.1452H199.305C199.993 25.1169 200.673 25.2983 201.254 25.6647C201.52 25.8624 201.733 26.1226 201.872 26.4217C202.011 26.7209 202.072 27.0495 202.051 27.3779C202.07 27.8459 201.952 28.3093 201.709 28.7119C201.404 29.1435 200.948 29.4486 200.429 29.5685C200.053 29.6669 199.665 29.7142 199.276 29.7089H198.437V25.1452ZM203.274 36.7161C203.092 37.1152 202.788 37.4488 202.406 37.671C201.615 38.0509 200.738 38.2249 199.859 38.1765H198.437V33.2898H199.618C200.493 33.2291 201.371 33.3536 202.193 33.6549C202.662 33.8426 203.046 34.1918 203.274 34.6378C203.435 34.9613 203.517 35.3169 203.516 35.677C203.523 36.0587 203.445 36.4373 203.288 36.7863L203.274 36.7161ZM77.5683 41.8697H89.2923V38.008H82.0928V33.1212H89.0504V29.2315H82.0928V25.3277H89.3492V21.452H77.5683V41.8697ZM241.448 21.452V25.3277H245.987V41.8697H250.455V25.3277H254.994V21.452H241.448ZM137.782 23.0388C137.075 22.4129 136.226 21.9649 135.306 21.7329C134.312 21.5097 133.294 21.4106 132.276 21.438H126.2V41.8697H130.682V34.5114H132.887C133.85 34.5709 134.814 34.4387 135.723 34.1227C136.633 33.8067 137.468 33.3133 138.18 32.6719C139.341 31.405 139.963 29.7454 139.916 28.0379C139.937 27.102 139.756 26.1725 139.386 25.3107C139.015 24.4489 138.464 23.6746 137.768 23.0388H137.782ZM134.353 30.06C133.64 30.5144 132.793 30.7174 131.948 30.6357H130.625V25.3277H131.706C132.618 25.2514 133.532 25.4523 134.324 25.9035C134.646 26.1409 134.906 26.4508 135.082 26.8075C135.257 27.1642 135.344 27.5572 135.335 27.9536C135.34 28.3547 135.255 28.7519 135.085 29.1163C134.915 29.4807 134.665 29.8031 134.353 30.06ZM234.946 21.0027C232.157 20.8776 229.43 21.8469 227.362 23.6988C226.278 24.7276 225.423 25.9684 224.853 27.3418C224.282 28.7151 224.007 30.191 224.047 31.6749C224.02 33.0885 224.283 34.4929 224.822 35.8031C225.36 37.1133 226.163 38.3019 227.18 39.2971C228.198 40.2923 229.41 41.0732 230.742 41.5926C232.074 42.1121 233.5 42.3592 234.932 42.319C236.708 42.3436 238.463 41.9335 240.04 41.1254L240.182 41.0552V35.6348L239.698 36.1965C239.15 36.848 238.463 37.3721 237.685 37.7313C236.908 38.0905 236.06 38.2761 235.202 38.2748C233.542 38.2835 231.936 37.6887 230.692 36.6038C230.019 35.9851 229.488 35.2314 229.134 34.3933C228.781 33.5553 228.613 32.6523 228.643 31.7451C228.631 30.0324 229.253 28.3744 230.393 27.083C230.977 26.4383 231.695 25.9253 232.498 25.5788C233.301 25.2323 234.17 25.0605 235.046 25.0749C235.932 25.0844 236.805 25.281 237.608 25.6516C238.41 26.0222 239.123 26.5582 239.698 27.2234L240.182 27.7711V22.3367L240.04 22.2665C238.482 21.4304 236.734 21.0003 234.96 21.0167L234.946 21.0027ZM156.193 34.3008V21.452H151.725V41.8697H155.154L165.555 28.9647V41.8697H170.023V21.452H166.537L156.193 34.3008ZM185.958 29.077H177.976V21.452H173.509V41.8697H177.976V33.0229H185.958V41.8697H190.426V21.452H185.958V29.077Z" fill="#50B848"/>
<path d="M66.641 8.64536C65.4706 7.68292 63.9803 7.18264 62.458 7.24112H60.5656V4.222H66.7122V0.992249H56.909V17.3516H62.4722C63.3007 17.3656 64.1264 17.2519 64.9194 17.0146C65.8797 16.7226 66.7152 16.1251 67.2955 15.3155C67.9021 14.4438 68.2248 13.4101 68.2204 12.3526C68.2387 11.6581 68.106 10.9679 67.8311 10.3283C67.5562 9.68883 67.1455 9.11493 66.6268 8.64536H66.641ZM64.0088 13.5462C63.3699 14.023 62.5719 14.2437 61.775 14.164H60.5656V10.499H61.8319C62.6088 10.4227 63.385 10.6495 63.9946 11.1309C64.1593 11.2949 64.2884 11.4903 64.374 11.7051C64.4596 11.92 64.5 12.1499 64.4926 12.3806C64.5006 12.5985 64.4631 12.8157 64.3823 13.0187C64.3015 13.2216 64.1792 13.406 64.023 13.5602L64.0088 13.5462ZM109.368 8.60323L116.383 0.992249H111.716L106.281 7.25516V0.992249H102.567V17.3516H106.281V10.4709L111.858 17.4078H116.696L109.368 8.60323ZM75.3202 0.992249L68.3057 17.3516H72.2754L73.6982 14.0376H79.7879L81.2107 17.3516H85.1519L78.3081 0.992249H75.3202ZM74.8934 10.9483L76.7857 6.27219L78.6354 10.9483H74.8934ZM96.2356 7.08665H89.9468V0.992249H86.2901V17.3516H89.961V10.3304H96.1787V17.3516H99.8353V0.992249H96.1645L96.2356 7.08665Z" fill="#50B848"/>
<path d="M23.5581 0.992249V12.8721L33.3613 0.992249H23.5581Z" fill="#50B848"/>
<path d="M40.3474 2.63519L23.5581 22.9967V28.066C23.5581 27.9256 23.5581 27.7851 23.6293 27.6447L23.8427 26.746C24.2214 25.453 24.8283 24.2361 25.6354 23.1511L26.2046 22.4771C26.8325 21.8372 27.5457 21.2845 28.3246 20.8341C28.7398 20.6222 29.1674 20.4347 29.6051 20.2725C30.527 19.998 31.4884 19.8747 32.4507 19.9074L33.4183 20.0337C34.1808 20.2054 34.9174 20.4744 35.6094 20.8341C35.9989 21.0597 36.3742 21.3083 36.7334 21.5784C37.7669 22.4327 38.6222 23.4772 39.2518 24.6537L39.636 25.4681C39.9331 26.3282 40.1568 27.2113 40.3047 28.1081L40.3474 2.63519Z" fill="#50B848"/>
<path d="M31.9954 21.7469C28.3246 21.7469 25.3366 25.4541 25.3366 30.0039C25.3366 34.5536 28.3246 38.2749 31.9954 38.2749C35.6663 38.2749 38.6684 34.5677 38.6684 30.0039C38.6684 25.4401 35.6805 21.7469 31.9954 21.7469ZM31.9954 35.6068C29.7901 35.6068 27.9831 33.0932 27.9831 29.9898C27.9831 26.8865 29.7758 24.3729 31.9954 24.3729C34.215 24.3729 36.022 26.8865 36.022 29.9898C36.022 33.0932 34.215 35.6068 31.9954 35.6068Z" fill="#50B848"/>
<path d="M23.8569 33.2898L23.6435 32.3911L23.5724 31.9698V41.8978H40.3616V32.0681C40.1529 33.2301 39.7993 34.3621 39.3087 35.4383L38.8534 36.2106C38.2055 37.2046 37.3813 38.0751 36.4204 38.7804L35.6521 39.2578C34.9599 39.6171 34.2233 39.8861 33.4609 40.0582C32.9907 40.1386 32.5152 40.1855 32.0381 40.1986C31.3906 40.1813 30.7468 40.0966 30.1173 39.9459C29.6668 39.8134 29.2249 39.654 28.7941 39.4684C27.8275 38.9642 26.9563 38.2991 26.2188 37.5025L25.6354 36.8285C24.838 35.7603 24.2361 34.5627 23.8569 33.2898Z" fill="#50B848"/>
<path d="M0.992249 40.311L17.7815 19.9495V14.81C17.7815 14.9504 17.7815 15.0908 17.7815 15.2313L17.5538 16.13C17.1732 17.4222 16.5664 18.6389 15.7611 19.7248L15.1777 20.3989C14.5414 21.051 13.813 21.6091 13.0151 22.0559C12.601 22.2704 12.1733 22.458 11.7345 22.6176C10.8131 22.8943 9.85138 23.0176 8.88888 22.9827L7.92137 22.8563C7.14402 22.6887 6.39279 22.4195 5.68754 22.0559C5.29308 21.831 4.91295 21.5824 4.54929 21.3116C3.5212 20.4557 2.67082 19.4114 2.04513 18.2363L1.66097 17.4219C1.36467 16.5616 1.141 15.6786 0.992249 14.7819L0.992249 40.311Z" fill="#50B848"/>
<path d="M9.34418 21.129C13.015 21.129 16.003 17.4218 16.003 12.8721C16.003 8.32237 13.0293 4.60114 9.34418 4.60114C5.65908 4.60114 2.68539 8.30833 2.68539 12.8721C2.68539 17.4359 5.67331 21.129 9.34418 21.129ZM9.34418 7.26919C11.5638 7.26919 13.3565 9.78278 13.3565 12.8862C13.3565 15.9895 11.5495 18.5031 9.34418 18.5031C7.13881 18.5031 5.33183 15.9895 5.33183 12.8862C5.33183 9.78278 7.13881 7.26919 9.34418 7.26919Z" fill="#50B848"/>
<path d="M17.4827 9.60024L17.7103 10.499C17.7103 10.6394 17.7103 10.7798 17.7103 10.9062V0.992249H0.992249V10.8219C1.2002 9.65978 1.55388 8.52769 2.04513 7.45175L2.50043 6.67942C3.15271 5.70931 3.9712 4.85874 4.91922 4.16583L5.68754 3.68839C6.38 3.32969 7.11646 3.06066 7.87868 2.88797C8.34909 2.8087 8.8245 2.76177 9.3015 2.74755C9.94904 2.76435 10.5929 2.84908 11.2223 3.00031C11.672 3.13502 12.1138 3.29441 12.5455 3.47775C13.5031 3.94883 14.3737 4.57542 15.1208 5.33135L15.7042 6.00539C16.5073 7.0927 17.1138 8.30891 17.4969 9.60024H17.4827Z" fill="#50B848"/>
<path d="M17.7673 30.0038L7.97827 41.8697H17.7673V30.0038Z" fill="#50B848"/>
<path d="M35.6094 0.992249L1.95975 41.8697H5.6733L39.3941 0.992249H35.6094Z" fill="#50B848"/>
<path d="M22.1923 38.8922H19.1923V41.8922H22.1923V38.8922Z" fill="#50B848"/>
<path d="M42.0263 39.0612V41.8697C42.9726 41.9382 43.8537 42.3712 44.4793 43.0753C45.1048 43.7795 45.4247 44.6981 45.3699 45.6331C45.3717 46.5897 45.0028 47.5108 44.3389 48.2078C43.675 48.9049 42.7662 49.325 41.7986 49.3824C39.9251 49.2749 38.0716 48.9448 36.2781 48.3994L19.1332 44.1867C9.69989 41.968 0.992249 44.5237 0.992249 50.6041H3.83788C3.83788 48.3573 8.26284 46.8547 17.7246 49.1998L35.1399 53.3704C38.3694 54.3446 41.8397 54.1959 44.9715 52.9491C46.1954 52.2971 47.2173 51.33 47.9288 50.1506C48.6403 48.9712 49.0147 47.6235 49.0123 46.2509C49.0407 45.3207 48.8815 44.3942 48.5438 43.5252C48.2061 42.6563 47.6968 41.8623 47.0454 41.1893C46.3941 40.5164 45.6136 39.978 44.7495 39.6054C43.8854 39.2329 42.9549 39.0335 42.0121 39.0191L42.0263 39.0612Z" fill="#50B848"/>
</g>
<defs>
<clipPath id="clip0_12626_672">
<rect width="254.016" height="52.996" fill="white" transform="translate(0.992249 0.992249)"/>
</clipPath>
</defs>
</svg>
